<svg version="1.1" id="Layer_1" xmlns="http://www.w3.org/2000/svg" xmlns:xlink="http://www.w3.org/1999/xlink" x="0px" y="0px"
	 width="100%" viewBox="0 0 1451 1451" enable-background="new 0 0 1451 1451" xml:space="preserve">
<path fill="#000000" opacity="1.000000" stroke="none" 
	d="
M998.000000,1452.000000 
	C665.333374,1452.000000 333.166779,1452.000000 1.000134,1452.000000 
	C1.000089,968.333496 1.000089,484.666962 1.000045,1.000328 
	C484.666412,1.000219 968.332825,1.000219 1451.999512,1.000109 
	C1451.999634,484.666351 1451.999634,968.332703 1451.999756,1451.999512 
	C1300.833374,1452.000000 1149.666626,1452.000000 998.000000,1452.000000 
M446.500000,297.997314 
	C418.836609,297.997314 391.173157,297.960175 363.509857,298.007324 
	C333.505554,298.058502 304.064728,302.119598 275.668579,311.946075 
	C239.857483,324.338440 207.912888,343.274963 182.883347,372.085602 
	C137.870010,423.898865 123.223579,484.121765 137.501282,550.826660 
	C148.573593,602.556030 176.012955,644.167603 220.117676,674.196655 
	C222.389236,675.743286 224.671738,677.273987 227.163528,678.956848 
	C203.024292,706.364746 189.386993,737.774658 185.064774,773.307251 
	C180.516083,810.701660 184.526291,847.059753 201.877457,880.702087 
	C234.939926,944.807129 288.929108,976.887451 360.394073,977.739319 
	C449.375549,978.800110 538.379272,977.995239 627.373352,977.984802 
	C628.974792,977.984619 630.576233,977.844666 632.654053,977.747681 
	C632.654053,783.617065 632.654053,589.896118 632.654053,396.080933 
	C671.866638,396.080933 710.575562,396.080933 749.702393,396.080933 
	C749.702393,589.044434 749.702393,781.607666 749.702393,974.131714 
	C782.184570,974.131714 814.245056,974.131714 846.728821,974.131714 
	C846.728821,781.159363 846.728821,588.599060 846.728821,395.712341 
	C964.703186,395.712341 1082.250854,395.712341 1201.040161,395.712341 
	C1077.145020,649.487549 953.631165,902.481506 830.069397,1155.573730 
	C830.922180,1155.799194 831.242249,1155.957642 831.562439,1155.957886 
	C870.059631,1155.980225 908.557007,1156.024536 947.053528,1155.869019 
	C948.456238,1155.863403 950.481567,1154.197144 951.157166,1152.794434 
	C968.040344,1117.741333 984.820557,1082.638184 1001.537964,1047.505493 
	C1032.759521,981.891296 1063.904541,916.240662 1095.128662,850.627686 
	C1129.636353,778.114990 1164.214233,705.635681 1198.730103,633.126831 
	C1238.392334,549.806396 1278.046387,466.482056 1317.576538,383.098969 
	C1319.361450,379.334198 1320.793213,374.986359 1320.851929,370.888031 
	C1321.169678,348.727417 1321.002563,326.559784 1321.002563,304.394592 
	C1321.002563,302.643219 1321.002563,300.891846 1321.002563,297.997314 
	C1029.309326,297.997314 738.404663,297.997314 446.500000,297.997314 
z"/>
<path fill="#FDFDFD" opacity="1.000000" stroke="none" 
	d="
M447.000000,297.997314 
	C738.404663,297.997314 1029.309326,297.997314 1321.002563,297.997314 
	C1321.002563,300.891846 1321.002563,302.643219 1321.002563,304.394592 
	C1321.002563,326.559784 1321.169678,348.727417 1320.851929,370.888031 
	C1320.793213,374.986359 1319.361450,379.334198 1317.576538,383.098969 
	C1278.046387,466.482056 1238.392334,549.806396 1198.730103,633.126831 
	C1164.214233,705.635681 1129.636353,778.114990 1095.128662,850.627686 
	C1063.904541,916.240662 1032.759521,981.891296 1001.537964,1047.505493 
	C984.820557,1082.638184 968.040344,1117.741333 951.157166,1152.794434 
	C950.481567,1154.197144 948.456238,1155.863403 947.053528,1155.869019 
	C908.557007,1156.024536 870.059631,1155.980225 831.562439,1155.957886 
	C831.242249,1155.957642 830.922180,1155.799194 830.069397,1155.573730 
	C953.631165,902.481506 1077.145020,649.487549 1201.040161,395.712341 
	C1082.250854,395.712341 964.703186,395.712341 846.728821,395.712341 
	C846.728821,588.599060 846.728821,781.159363 846.728821,974.131714 
	C814.245056,974.131714 782.184570,974.131714 749.702393,974.131714 
	C749.702393,781.607666 749.702393,589.044434 749.702393,396.080933 
	C710.575562,396.080933 671.866638,396.080933 632.654053,396.080933 
	C632.654053,589.896118 632.654053,783.617065 632.654053,977.747681 
	C630.576233,977.844666 628.974792,977.984619 627.373352,977.984802 
	C538.379272,977.995239 449.375549,978.800110 360.394073,977.739319 
	C288.929108,976.887451 234.939926,944.807129 201.877457,880.702087 
	C184.526291,847.059753 180.516083,810.701660 185.064774,773.307251 
	C189.386993,737.774658 203.024292,706.364746 227.163528,678.956848 
	C224.671738,677.273987 222.389236,675.743286 220.117676,674.196655 
	C176.012955,644.167603 148.573593,602.556030 137.501282,550.826660 
	C123.223579,484.121765 137.870010,423.898865 182.883347,372.085602 
	C207.912888,343.274963 239.857483,324.338440 275.668579,311.946075 
	C304.064728,302.119598 333.505554,298.058502 363.509857,298.007324 
	C391.173157,297.960175 418.836609,297.997314 447.000000,297.997314 
M367.511230,619.078613 
	C372.168396,619.215393 376.825439,619.467529 381.482697,619.470886 
	C423.807526,619.501587 466.132324,619.488831 508.457153,619.488831 
	C510.225433,619.488831 511.993713,619.488892 515.312439,619.488892 
	C513.741211,629.998535 513.330688,639.927124 510.681122,649.217163 
	C499.527344,688.325073 461.107483,716.668579 420.330994,716.744080 
	C401.341827,716.779236 382.343842,716.649780 363.366150,717.179626 
	C337.913727,717.890320 315.919525,726.935242 298.959656,746.405762 
	C268.406952,781.481323 276.190521,843.251648 321.684143,868.853210 
	C338.374939,878.245972 356.493561,880.665588 375.111389,880.713074 
	C426.933960,880.845154 478.757111,880.759644 530.580017,880.748108 
	C532.030884,880.747742 533.481812,880.612671 535.172974,880.528442 
	C535.172974,718.738220 535.172974,557.345459 535.172974,395.603271 
	C533.482056,395.509216 532.016663,395.354279 530.551575,395.356812 
	C473.735138,395.455566 416.915344,395.240997 360.103729,395.823761 
	C333.311340,396.098602 307.666779,401.973602 284.382111,416.154602 
	C257.899323,432.283325 238.920547,454.375305 232.375549,485.087555 
	C223.209000,528.101318 238.495346,562.601379 272.181305,589.441711 
	C299.705933,611.372803 332.030487,618.868042 367.511230,619.078613 
z"/>
<path fill="#010101" opacity="1.000000" stroke="none" 
	d="
M367.012756,619.079590 
	C332.030487,618.868042 299.705933,611.372803 272.181305,589.441711 
	C238.495346,562.601379 223.209000,528.101318 232.375549,485.087555 
	C238.920547,454.375305 257.899323,432.283325 284.382111,416.154602 
	C307.666779,401.973602 333.311340,396.098602 360.103729,395.823761 
	C416.915344,395.240997 473.735138,395.455566 530.551575,395.356812 
	C532.016663,395.354279 533.482056,395.509216 535.172974,395.603271 
	C535.172974,557.345459 535.172974,718.738220 535.172974,880.528442 
	C533.481812,880.612671 532.030884,880.747742 530.580017,880.748108 
	C478.757111,880.759644 426.933960,880.845154 375.111389,880.713074 
	C356.493561,880.665588 338.374939,878.245972 321.684143,868.853210 
	C276.190521,843.251648 268.406952,781.481323 298.959656,746.405762 
	C315.919525,726.935242 337.913727,717.890320 363.366150,717.179626 
	C382.343842,716.649780 401.341827,716.779236 420.330994,716.744080 
	C461.107483,716.668579 499.527344,688.325073 510.681122,649.217163 
	C513.330688,639.927124 513.741211,629.998535 515.312439,619.488892 
	C511.993713,619.488892 510.225433,619.488831 508.457153,619.488831 
	C466.132324,619.488831 423.807526,619.501587 381.482697,619.470886 
	C376.825439,619.467529 372.168396,619.215393 367.012756,619.079590 
z"/>
</svg>