<svg version="1.1" id="Layer_1" xmlns="http://www.w3.org/2000/svg" xmlns:xlink="http://www.w3.org/1999/xlink" x="0px" y="0px"
	 width="100%" viewBox="0 0 1451 1451" enable-background="new 0 0 1451 1451" xml:space="preserve">
<path fill="#FFFFFF" opacity="1.000000" stroke="none" 
	d="
M998.000000,1452.000000 
	C665.333374,1452.000000 333.166779,1452.000000 1.000134,1452.000000 
	C1.000089,968.333496 1.000089,484.666962 1.000045,1.000328 
	C484.666412,1.000219 968.332825,1.000219 1451.999512,1.000109 
	C1451.999634,484.666351 1451.999634,968.332703 1451.999756,1451.999512 
	C1300.833374,1452.000000 1149.666626,1452.000000 998.000000,1452.000000 
M446.500000,297.997314 
	C418.838196,297.997314 391.176300,297.961090 363.514587,298.007111 
	C333.509979,298.057037 304.069824,302.120209 275.673187,311.945038 
	C239.860962,324.335480 207.915756,343.271790 182.886566,372.082245 
	C137.874542,423.894531 123.219810,484.115173 137.499954,550.822266 
	C148.573700,602.551208 176.009430,644.164246 220.114014,674.193909 
	C222.386017,675.740845 224.669235,677.271301 227.163834,678.955750 
	C203.026764,706.362000 189.387772,737.770996 185.065308,773.303284 
	C180.516357,810.697571 184.524231,847.056152 201.875351,880.698669 
	C234.937180,944.803040 288.924469,976.887146 360.390076,977.739258 
	C449.371643,978.800232 538.375427,977.995178 627.369629,977.984802 
	C628.971558,977.984558 630.573425,977.845764 632.651855,977.749512 
	C632.651855,783.620117 632.651855,589.898865 632.651855,396.079437 
	C671.864807,396.079437 710.574341,396.079437 749.701050,396.079437 
	C749.701050,589.041931 749.701050,781.605591 749.701050,974.132751 
	C782.182617,974.132751 814.243347,974.132751 846.726929,974.132751 
	C846.726929,781.161194 846.726929,588.600769 846.726929,395.711731 
	C964.701843,395.711731 1082.249878,395.711731 1201.042236,395.711731 
	C1077.146729,649.487366 953.632751,902.481384 830.071228,1155.572876 
	C830.921204,1155.798584 831.240967,1155.957764 831.560913,1155.957886 
	C870.058167,1155.980347 908.555481,1156.024414 947.052063,1155.869141 
	C948.455078,1155.863403 950.481018,1154.198120 951.156433,1152.795654 
	C968.039551,1117.742432 984.819702,1082.639404 1001.537170,1047.506592 
	C1032.758789,981.892334 1063.903931,916.241699 1095.128052,850.628723 
	C1129.635864,778.115906 1164.213867,705.636475 1198.729614,633.127441 
	C1238.391968,549.807068 1278.046021,466.482666 1317.576050,383.099548 
	C1319.360962,379.334717 1320.793091,374.987000 1320.851929,370.888702 
	C1321.169800,348.728058 1321.002563,326.560425 1321.002563,304.395203 
	C1321.002563,302.643768 1321.002563,300.892334 1321.002563,297.997314 
	C1029.309692,297.997314 738.404846,297.997314 446.500000,297.997314 
z"/>
<path fill="#020202" opacity="1.000000" stroke="none" 
	d="
M447.000000,297.997314 
	C738.404846,297.997314 1029.309692,297.997314 1321.002563,297.997314 
	C1321.002563,300.892334 1321.002563,302.643768 1321.002563,304.395203 
	C1321.002563,326.560425 1321.169800,348.728058 1320.851929,370.888702 
	C1320.793091,374.987000 1319.360962,379.334717 1317.576050,383.099548 
	C1278.046021,466.482666 1238.391968,549.807068 1198.729614,633.127441 
	C1164.213867,705.636475 1129.635864,778.115906 1095.128052,850.628723 
	C1063.903931,916.241699 1032.758789,981.892334 1001.537170,1047.506592 
	C984.819702,1082.639404 968.039551,1117.742432 951.156433,1152.795654 
	C950.481018,1154.198120 948.455078,1155.863403 947.052063,1155.869141 
	C908.555481,1156.024414 870.058167,1155.980347 831.560913,1155.957886 
	C831.240967,1155.957764 830.921204,1155.798584 830.071228,1155.572876 
	C953.632751,902.481384 1077.146729,649.487366 1201.042236,395.711731 
	C1082.249878,395.711731 964.701843,395.711731 846.726929,395.711731 
	C846.726929,588.600769 846.726929,781.161194 846.726929,974.132751 
	C814.243347,974.132751 782.182617,974.132751 749.701050,974.132751 
	C749.701050,781.605591 749.701050,589.041931 749.701050,396.079437 
	C710.574341,396.079437 671.864807,396.079437 632.651855,396.079437 
	C632.651855,589.898865 632.651855,783.620117 632.651855,977.749512 
	C630.573425,977.845764 628.971558,977.984558 627.369629,977.984802 
	C538.375427,977.995178 449.371643,978.800232 360.390076,977.739258 
	C288.924469,976.887146 234.937180,944.803040 201.875351,880.698669 
	C184.524231,847.056152 180.516357,810.697571 185.065308,773.303284 
	C189.387772,737.770996 203.026764,706.362000 227.163834,678.955750 
	C224.669235,677.271301 222.386017,675.740845 220.114014,674.193909 
	C176.009430,644.164246 148.573700,602.551208 137.499954,550.822266 
	C123.219810,484.115173 137.874542,423.894531 182.886566,372.082245 
	C207.915756,343.271790 239.860962,324.335480 275.673187,311.945038 
	C304.069824,302.120209 333.509979,298.057037 363.514587,298.007111 
	C391.176300,297.961090 418.838196,297.997314 447.000000,297.997314 
M367.511230,619.078735 
	C372.168335,619.215393 376.825378,619.467224 381.482574,619.470642 
	C423.807404,619.501282 466.132233,619.488647 508.457062,619.488647 
	C510.225342,619.488647 511.993622,619.488647 515.312378,619.488647 
	C513.741211,629.998291 513.330811,639.926941 510.681274,649.217041 
	C499.527649,688.324768 461.107910,716.668457 420.331268,716.744263 
	C401.342072,716.779541 382.344086,716.649841 363.366364,717.179626 
	C337.913971,717.890320 315.919708,726.935120 298.959839,746.405579 
	C268.407196,781.480957 276.190247,843.251160 321.683929,868.853149 
	C338.374664,878.246033 356.493347,880.665588 375.111084,880.713074 
	C426.933655,880.845337 478.756805,880.759766 530.579712,880.748230 
	C532.030640,880.747925 533.481567,880.612854 535.172729,880.528625 
	C535.172729,718.738464 535.172729,557.345642 535.172729,395.603241 
	C533.482056,395.509155 532.016724,395.354156 530.551636,395.356689 
	C473.735199,395.455505 416.915375,395.240936 360.103760,395.823730 
	C333.311371,396.098572 307.666870,401.973602 284.382202,416.154572 
	C257.899384,432.283264 238.920547,454.375214 232.375549,485.087524 
	C223.209015,528.101257 238.495331,562.601196 272.181274,589.441711 
	C299.705933,611.372925 332.030426,618.868103 367.511230,619.078735 
z"/>
<path fill="#FEFEFE" opacity="1.000000" stroke="none" 
	d="
M367.012756,619.079712 
	C332.030426,618.868103 299.705933,611.372925 272.181274,589.441711 
	C238.495331,562.601196 223.209015,528.101257 232.375549,485.087524 
	C238.920547,454.375214 257.899384,432.283264 284.382202,416.154572 
	C307.666870,401.973602 333.311371,396.098572 360.103760,395.823730 
	C416.915375,395.240936 473.735199,395.455505 530.551636,395.356689 
	C532.016724,395.354156 533.482056,395.509155 535.172729,395.603241 
	C535.172729,557.345642 535.172729,718.738464 535.172729,880.528625 
	C533.481567,880.612854 532.030640,880.747925 530.579712,880.748230 
	C478.756805,880.759766 426.933655,880.845337 375.111084,880.713074 
	C356.493347,880.665588 338.374664,878.246033 321.683929,868.853149 
	C276.190247,843.251160 268.407196,781.480957 298.959839,746.405579 
	C315.919708,726.935120 337.913971,717.890320 363.366364,717.179626 
	C382.344086,716.649841 401.342072,716.779541 420.331268,716.744263 
	C461.107910,716.668457 499.527649,688.324768 510.681274,649.217041 
	C513.330811,639.926941 513.741211,629.998291 515.312378,619.488647 
	C511.993622,619.488647 510.225342,619.488647 508.457062,619.488647 
	C466.132233,619.488647 423.807404,619.501282 381.482574,619.470642 
	C376.825378,619.467224 372.168335,619.215393 367.012756,619.079712 
z"/>
</svg>